ExploreSerif_Normal.ufo
<glyph name="zero" format="2">
  <advance width="550"/>
  <unicode hex="0030"/>
  <outline>
    <contour>
      <point x="274" y="660" type="curve" smooth="yes"/>
      <point x="189" y="660"/>
      <point x="128" y="599"/>
      <point x="128" y="358" type="curve" smooth="yes"/>
      <point x="128" y="157"/>
      <point x="166" y="49"/>
      <point x="273" y="49" type="curve" smooth="yes"/>
      <point x="382" y="49"/>
      <point x="422" y="158"/>
      <point x="422" y="360" type="curve" smooth="yes"/>
      <point x="422" y="615"/>
      <point x="346" y="660"/>
    </contour>
    <contour>
      <point x="274" y="716" type="curve" smooth="yes"/>
      <point x="436" y="716"/>
      <point x="502" y="597"/>
      <point x="502" y="360" type="curve" smooth="yes"/>
      <point x="502" y="184"/>
      <point x="471" y="-7"/>
      <point x="273" y="-7" type="curve" smooth="yes"/>
      <point x="113" y="-7"/>
      <point x="48" y="114"/>
      <point x="48" y="357" type="curve" smooth="yes"/>
      <point x="48" y="596"/>
      <point x="113" y="716"/>
    </contour>
  </outline>
</glyph>
<glyph name="three" format="2">
  <advance width="550"/>
  <unicode hex="0033"/>
  <outline>
    <contour>
      <point x="72" y="708" type="line"/>
      <point x="467" y="708" type="line"/>
      <point x="467" y="653" type="line"/>
      <point x="275" y="432" type="line"/>
      <point x="420" y="427"/>
      <point x="508" y="348"/>
      <point x="508" y="220" type="curve" smooth="yes"/>
      <point x="508" y="91"/>
      <point x="424" y="-8"/>
      <point x="261" y="-8" type="curve" smooth="yes"/>
      <point x="138" y="-8"/>
      <point x="102" y="20"/>
      <point x="36" y="70" type="curve"/>
      <point x="36" y="106" type="line" smooth="yes"/>
      <point x="36" y="144"/>
      <point x="55" y="166"/>
      <point x="78" y="169" type="curve" smooth="yes"/>
      <point x="85" y="170" type="line"/>
      <point x="105" y="69" type="line"/>
      <point x="150" y="36"/>
      <point x="200" y="32"/>
      <point x="255" y="32" type="curve" smooth="yes"/>
      <point x="376" y="32"/>
      <point x="428" y="119"/>
      <point x="428" y="222" type="curve" smooth="yes"/>
      <point x="428" y="316"/>
      <point x="371" y="386"/>
      <point x="263" y="386" type="curve" smooth="yes"/>
      <point x="204" y="386" type="line"/>
      <point x="204" y="414" type="line"/>
      <point x="400" y="644" type="line"/>
      <point x="104" y="644" type="line"/>
      <point x="104" y="549" type="line"/>
      <point x="72" y="549" type="line"/>
    </contour>
  </outline>
</glyph>
<glyph name="nine" format="2">
  <advance width="550"/>
  <unicode hex="0039"/>
  <outline>
    <contour>
      <point x="281" y="716" type="curve" smooth="yes"/>
      <point x="435" y="716"/>
      <point x="512" y="628"/>
      <point x="512" y="427" type="curve" smooth="yes"/>
      <point x="512" y="190"/>
      <point x="341" y="21"/>
      <point x="145" y="-11" type="curve"/>
      <point x="137" y="27" type="line"/>
      <point x="299" y="70"/>
      <point x="434" y="203"/>
      <point x="434" y="370" type="curve"/>
      <point x="421" y="321"/>
      <point x="359" y="259"/>
      <point x="265" y="259" type="curve" smooth="yes"/>
      <point x="127" y="259"/>
      <point x="48" y="345"/>
      <point x="48" y="482" type="curve" smooth="yes"/>
      <point x="48" y="627"/>
      <point x="137" y="716"/>
    </contour>
    <contour>
      <point x="282" y="672" type="curve" smooth="yes"/>
      <point x="183" y="672"/>
      <point x="128" y="586"/>
      <point x="128" y="482" type="curve" smooth="yes"/>
      <point x="128" y="378"/>
      <point x="178" y="303"/>
      <point x="278" y="303" type="curve" smooth="yes"/>
      <point x="372" y="303"/>
      <point x="432" y="386"/>
      <point x="432" y="482" type="curve" smooth="yes"/>
      <point x="432" y="592"/>
      <point x="382" y="672"/>
    </contour>
  </outline>
</glyph>
<glyph name="A" format="2">
  <advance width="638"/>
  <unicode hex="0041"/>
  <anchor x="303" y="876" name="AccentCenter"/>
  <outline>
    <contour>
      <point x="367" y="708" type="line"/>
      <point x="591" y="44" type="line"/>
      <point x="628" y="44" type="line"/>
      <point x="628" y="0" type="line"/>
      <point x="458" y="0" type="line"/>
      <point x="458" y="44" type="line"/>
      <point x="506" y="44" type="line"/>
      <point x="457" y="192" type="line"/>
      <point x="149" y="192" type="line"/>
      <point x="95" y="44" type="line"/>
      <point x="133" y="44" type="line"/>
      <point x="133" y="0" type="line"/>
      <point x="10" y="0" type="line"/>
      <point x="10" y="44" type="line"/>
      <point x="44" y="44" type="line"/>
      <point x="266" y="665" type="line"/>
      <point x="259" y="708" type="line"/>
    </contour>
    <contour>
      <point x="311" y="661" type="line"/>
      <point x="163" y="236" type="line"/>
      <point x="446" y="236" type="line"/>
      <point x="316" y="661" type="line"/>
    </contour>
  </outline>
</glyph>
<glyph name="B" format="2">
  <advance width="625"/>
  <unicode hex="0042"/>
  <outline>
    <contour>
      <point x="35" y="708" type="line"/>
      <point x="356" y="708" type="line" smooth="yes"/>
      <point x="488" y="708"/>
      <point x="569" y="641"/>
      <point x="569" y="534" type="curve" smooth="yes"/>
      <point x="569" y="454"/>
      <point x="534" y="409"/>
      <point x="465" y="378" type="curve"/>
      <point x="548" y="357"/>
      <point x="601" y="298"/>
      <point x="601" y="197" type="curve" smooth="yes"/>
      <point x="601" y="74"/>
      <point x="517" y="0"/>
      <point x="377" y="0" type="curve" smooth="yes"/>
      <point x="32" y="0" type="line"/>
      <point x="32" y="44" type="line"/>
      <point x="107" y="44" type="line"/>
      <point x="107" y="664" type="line"/>
      <point x="35" y="664" type="line"/>
    </contour>
    <contour>
      <point x="183" y="664" type="line"/>
      <point x="183" y="400" type="line"/>
      <point x="360" y="400" type="line" smooth="yes"/>
      <point x="450" y="400"/>
      <point x="491" y="459"/>
      <point x="491" y="540" type="curve" smooth="yes"/>
      <point x="491" y="616"/>
      <point x="445" y="664"/>
      <point x="354" y="664" type="curve" smooth="yes"/>
    </contour>
    <contour>
      <point x="183" y="356" type="line"/>
      <point x="183" y="44" type="line"/>
      <point x="377" y="44" type="line" smooth="yes"/>
      <point x="468" y="44"/>
      <point x="521" y="101"/>
      <point x="521" y="202" type="curve" smooth="yes"/>
      <point x="521" y="294"/>
      <point x="479" y="356"/>
      <point x="370" y="356" type="curve" smooth="yes"/>
    </contour>
  </outline>
</glyph>
<glyph name="C" format="2">
  <advance width="605"/>
  <unicode hex="0043"/>
  <outline>
    <contour>
      <point x="362" y="716" type="curve" smooth="yes"/>
      <point x="437" y="716"/>
      <point x="489" y="696"/>
      <point x="545" y="645" type="curve"/>
      <point x="545" y="645"/>
      <point x="537" y="584"/>
      <point x="533" y="558" type="curve" smooth="yes"/>
      <point x="530" y="542"/>
      <point x="521" y="535"/>
      <point x="507" y="535" type="curve" smooth="yes"/>
      <point x="494" y="535" type="line"/>
      <point x="455" y="659" type="line"/>
      <point x="412" y="672"/>
      <point x="387" y="672"/>
      <point x="363" y="672" type="curve"/>
      <point x="240" y="672"/>
      <point x="128" y="586"/>
      <point x="128" y="352" type="curve" smooth="yes"/>
      <point x="128" y="150"/>
      <point x="198" y="36"/>
      <point x="352" y="36" type="curve" smooth="yes"/>
      <point x="427" y="36"/>
      <point x="496" y="66"/>
      <point x="537" y="103" type="curve"/>
      <point x="563" y="65" type="line"/>
      <point x="516" y="30"/>
      <point x="447" y="-8"/>
      <point x="352" y="-8" type="curve" smooth="yes"/>
      <point x="170" y="-8"/>
      <point x="48" y="125"/>
      <point x="48" y="352" type="curve" smooth="yes"/>
      <point x="48" y="608"/>
      <point x="214" y="716"/>
    </contour>
  </outline>
</glyph>
<glyph name="D" format="2">
  <advance width="654"/>
  <unicode hex="0044"/>
  <outline>
    <contour>
      <point x="38" y="708" type="line"/>
      <point x="297" y="708" type="line" smooth="yes"/>
      <point x="497" y="708"/>
      <point x="606" y="585"/>
      <point x="606" y="361" type="curve" smooth="yes"/>
      <point x="606" y="124"/>
      <point x="499" y="0"/>
      <point x="293" y="0" type="curve" smooth="yes"/>
      <point x="38" y="0" type="line"/>
      <point x="38" y="56" type="line"/>
      <point x="102" y="56" type="line"/>
      <point x="102" y="652" type="line"/>
      <point x="38" y="652" type="line"/>
    </contour>
    <contour>
      <point x="182" y="652" type="line"/>
      <point x="182" y="56" type="line"/>
      <point x="295" y="56" type="line" smooth="yes"/>
      <point x="450" y="56"/>
      <point x="527" y="163"/>
      <point x="527" y="361" type="curve" smooth="yes"/>
      <point x="527" y="546"/>
      <point x="448" y="652"/>
      <point x="297" y="652" type="curve" smooth="yes"/>
    </contour>
  </outline>
</glyph>
<glyph name="E" format="2">
  <advance width="558"/>
  <unicode hex="0045"/>
  <anchor x="282" y="880" name="AccentCenter"/>
  <outline>
    <contour>
      <point x="38" y="708" type="line"/>
      <point x="509" y="708" type="line"/>
      <point x="509" y="573" type="line"/>
      <point x="465" y="573" type="line"/>
      <point x="465" y="653" type="line"/>
      <point x="182" y="653" type="line"/>
      <point x="182" y="395" type="line"/>
      <point x="431" y="395" type="line"/>
      <point x="431" y="339" type="line"/>
      <point x="182" y="339" type="line"/>
      <point x="182" y="56" type="line"/>
      <point x="485" y="56" type="line"/>
      <point x="485" y="144" type="line"/>
      <point x="529" y="144" type="line"/>
      <point x="529" y="0" type="line"/>
      <point x="38" y="0" type="line"/>
      <point x="38" y="56" type="line"/>
      <point x="102" y="56" type="line"/>
      <point x="102" y="652" type="line"/>
      <point x="38" y="652" type="line"/>
    </contour>
  </outline>
</glyph>
<glyph name="F" format="2">
  <advance width="566"/>
  <unicode hex="0046"/>
  <outline>
    <contour>
      <point x="32" y="708" type="line"/>
      <point x="521" y="708" type="line"/>
      <point x="521" y="561" type="line"/>
      <point x="477" y="561" type="line"/>
      <point x="477" y="664" type="line"/>
      <point x="185" y="664" type="line"/>
      <point x="185" y="389" type="line"/>
      <point x="443" y="389" type="line"/>
      <point x="443" y="345" type="line"/>
      <point x="185" y="345" type="line"/>
      <point x="185" y="44" type="line"/>
      <point x="268" y="44" type="line"/>
      <point x="268" y="0" type="line"/>
      <point x="32" y="0" type="line"/>
      <point x="32" y="44" type="line"/>
      <point x="105" y="44" type="line"/>
      <point x="105" y="664" type="line"/>
      <point x="32" y="664" type="line"/>
    </contour>
  </outline>
</glyph>
<glyph name="G" format="2">
  <advance width="654"/>
  <unicode hex="0047"/>
  <outline>
    <contour>
      <point x="369" y="716" type="curve" smooth="yes"/>
      <point x="454" y="716"/>
      <point x="520" y="705"/>
      <point x="590" y="657" type="curve"/>
      <point x="568" y="566" type="line" smooth="yes"/>
      <point x="564" y="550"/>
      <point x="556" y="543"/>
      <point x="542" y="543" type="curve" smooth="yes"/>
      <point x="529" y="543" type="line"/>
      <point x="515.331298828125" y="632.2783813476562" type="line"/>
      <point x="474" y="657"/>
      <point x="438" y="672"/>
      <point x="368" y="672" type="curve" smooth="yes"/>
      <point x="232" y="672"/>
      <point x="126" y="553"/>
      <point x="126" y="352" type="curve" smooth="yes"/>
      <point x="126" y="146"/>
      <point x="227" y="36"/>
      <point x="380" y="36" type="curve" smooth="yes"/>
      <point x="420" y="36"/>
      <point x="468" y="39"/>
      <point x="506" y="52" type="curve"/>
      <point x="506" y="348" type="line"/>
      <point x="323" y="348" type="line"/>
      <point x="323" y="392" type="line"/>
      <point x="625" y="392" type="line"/>
      <point x="620" y="348" type="line"/>
      <point x="586" y="348" type="line"/>
      <point x="586" y="25" type="line"/>
      <point x="523" y="5"/>
      <point x="453" y="-8"/>
      <point x="373" y="-8" type="curve" smooth="yes"/>
      <point x="197" y="-8"/>
      <point x="48" y="91"/>
      <point x="48" y="352" type="curve" smooth="yes"/>
      <point x="48" y="571"/>
      <point x="177" y="716"/>
    </contour>
  </outline>
</glyph>
<glyph name="H" format="2">
  <advance width="689"/>
  <unicode hex="0048"/>
  <outline>
    <contour>
      <point x="260" y="708" type="line"/>
      <point x="260" y="664" type="line"/>
      <point x="186" y="664" type="line"/>
      <point x="186" y="401" type="line"/>
      <point x="503" y="401" type="line"/>
      <point x="503" y="664" type="line"/>
      <point x="429" y="664" type="line"/>
      <point x="429" y="708" type="line"/>
      <point x="657" y="708" type="line"/>
      <point x="657" y="664" type="line"/>
      <point x="583" y="664" type="line"/>
      <point x="583" y="44" type="line"/>
      <point x="657" y="44" type="line"/>
      <point x="657" y="0" type="line"/>
      <point x="429" y="0" type="line"/>
      <point x="429" y="44" type="line"/>
      <point x="503" y="44" type="line"/>
      <point x="503" y="357" type="line"/>
      <point x="186" y="357" type="line"/>
      <point x="186" y="44" type="line"/>
      <point x="260" y="44" type="line"/>
      <point x="260" y="0" type="line"/>
      <point x="32" y="0" type="line"/>
      <point x="32" y="44" type="line"/>
      <point x="106" y="44" type="line"/>
      <point x="106" y="664" type="line"/>
      <point x="32" y="664" type="line"/>
      <point x="32" y="708" type="line"/>
    </contour>
  </outline>
</glyph>
<glyph name="I" format="2">
  <advance width="304"/>
  <unicode hex="0049"/>
  <anchor x="130" y="880" name="AccentCenter"/>
  <outline>
    <contour>
      <point x="48" y="708" type="line"/>
      <point x="256" y="708" type="line"/>
      <point x="256" y="652" type="line"/>
      <point x="192" y="652" type="line"/>
      <point x="192" y="56" type="line"/>
      <point x="256" y="56" type="line"/>
      <point x="256" y="0" type="line"/>
      <point x="48" y="0" type="line"/>
      <point x="48" y="56" type="line"/>
      <point x="112" y="56" type="line"/>
      <point x="112" y="652" type="line"/>
      <point x="48" y="652" type="line"/>
    </contour>
  </outline>
</glyph>
<glyph name="K" format="2">
  <advance width="654"/>
  <unicode hex="004B"/>
  <outline>
    <contour>
      <point x="48" y="708" type="line"/>
      <point x="276" y="708" type="line"/>
      <point x="276" y="652" type="line"/>
      <point x="202" y="652" type="line"/>
      <point x="202" y="339" type="line"/>
      <point x="491" y="652" type="line"/>
      <point x="426" y="652" type="line"/>
      <point x="426" y="708" type="line"/>
      <point x="619" y="708" type="line"/>
      <point x="619" y="652" type="line"/>
      <point x="567" y="652" type="line"/>
      <point x="286" y="348" type="line"/>
      <point x="554" y="56" type="line"/>
      <point x="619" y="56" type="line"/>
      <point x="619" y="0" type="line"/>
      <point x="488" y="0" type="line"/>
      <point x="205" y="331" type="line"/>
      <point x="202" y="331" type="line"/>
      <point x="202" y="56" type="line"/>
      <point x="276" y="56" type="line"/>
      <point x="276" y="0" type="line"/>
      <point x="48" y="0" type="line"/>
      <point x="48" y="56" type="line"/>
      <point x="122" y="56" type="line"/>
      <point x="122" y="652" type="line"/>
      <point x="48" y="652" type="line"/>
    </contour>
  </outline>
</glyph>
<glyph name="M" format="2">
  <advance width="771"/>
  <unicode hex="004D"/>
  <outline>
    <contour>
      <point x="38" y="708" type="line"/>
      <point x="187" y="708" type="line"/>
      <point x="390" y="274" type="line"/>
      <point x="580" y="708" type="line"/>
      <point x="733" y="708" type="line"/>
      <point x="733" y="652" type="line"/>
      <point x="669" y="652" type="line"/>
      <point x="669" y="56" type="line"/>
      <point x="733" y="56" type="line"/>
      <point x="733" y="0" type="line"/>
      <point x="515" y="0" type="line"/>
      <point x="515" y="56" type="line"/>
      <point x="589" y="56" type="line"/>
      <point x="589" y="608" type="line"/>
      <point x="402" y="192" type="line"/>
      <point x="342" y="192" type="line"/>
      <point x="158" y="569" type="line"/>
      <point x="158" y="56" type="line"/>
      <point x="232" y="56" type="line"/>
      <point x="232" y="0" type="line"/>
      <point x="38" y="0" type="line"/>
      <point x="38" y="56" type="line"/>
      <point x="102" y="56" type="line"/>
      <point x="102" y="652" type="line"/>
      <point x="38" y="652" type="line"/>
    </contour>
  </outline>
</glyph>
<glyph name="N" format="2">
  <advance width="689"/>
  <unicode hex="004E"/>
  <outline>
    <contour>
      <point x="38" y="708" type="line"/>
      <point x="189" y="708" type="line"/>
      <point x="527" y="161" type="line"/>
      <point x="527" y="652" type="line"/>
      <point x="459" y="652" type="line"/>
      <point x="459" y="708" type="line"/>
      <point x="651" y="708" type="line"/>
      <point x="651" y="652" type="line"/>
      <point x="583" y="652" type="line"/>
      <point x="583" y="13" type="line"/>
      <point x="531" y="0" type="line"/>
      <point x="162" y="573" type="line"/>
      <point x="162" y="56" type="line"/>
      <point x="230" y="56" type="line"/>
      <point x="230" y="0" type="line"/>
      <point x="38" y="0" type="line"/>
      <point x="38" y="56" type="line"/>
      <point x="106" y="56" type="line"/>
      <point x="106" y="652" type="line"/>
      <point x="38" y="652" type="line"/>
    </contour>
  </outline>
</glyph>
<glyph name="O" format="2">
  <advance width="704"/>
  <unicode hex="004F"/>
  <anchor x="354" y="876" name="AccentCenter"/>
  <outline>
    <contour>
      <point x="355" y="716" type="curve" smooth="yes"/>
      <point x="549" y="716"/>
      <point x="648" y="553"/>
      <point x="648" y="359" type="curve" smooth="yes"/>
      <point x="648" y="166"/>
      <point x="550" y="-8"/>
      <point x="355" y="-8" type="curve" smooth="yes"/>
      <point x="155" y="-8"/>
      <point x="56" y="166"/>
      <point x="56" y="356" type="curve" smooth="yes"/>
      <point x="56" y="552"/>
      <point x="154" y="716"/>
    </contour>
    <contour>
      <point x="355" y="660" type="curve" smooth="yes"/>
      <point x="222" y="660"/>
      <point x="136" y="553"/>
      <point x="136" y="356" type="curve" smooth="yes"/>
      <point x="136" y="156"/>
      <point x="222" y="48"/>
      <point x="355" y="48" type="curve" smooth="yes"/>
      <point x="488" y="48"/>
      <point x="568" y="156"/>
      <point x="568" y="356" type="curve" smooth="yes"/>
      <point x="568" y="553"/>
      <point x="488" y="660"/>
    </contour>
  </outline>
</glyph>
<glyph name="Q" format="2">
  <advance width="634"/>
  <unicode hex="0051"/>
  <outline>
    <contour>
      <point x="320" y="716" type="curve" smooth="yes"/>
      <point x="514" y="716"/>
      <point x="594" y="553"/>
      <point x="594" y="359" type="curve" smooth="yes"/>
      <point x="594" y="179.7578125"/>
      <point x="526" y="24"/>
      <point x="360" y="-5" type="curve"/>
      <point x="645" y="-77" type="line"/>
      <point x="631" y="-150" type="line"/>
      <point x="260" y="-8" type="line" smooth="yes"/>
      <point x="80" y="61"/>
      <point x="40" y="182.3571014404297"/>
      <point x="40" y="356" type="curve" smooth="yes"/>
      <point x="40" y="552"/>
      <point x="119" y="716"/>
    </contour>
    <contour>
      <point x="320" y="660" type="curve" smooth="yes"/>
      <point x="187" y="660"/>
      <point x="120" y="553"/>
      <point x="120" y="356" type="curve" smooth="yes"/>
      <point x="120" y="156"/>
      <point x="187" y="48"/>
      <point x="320" y="48" type="curve" smooth="yes"/>
      <point x="453" y="48"/>
      <point x="514" y="156"/>
      <point x="514" y="356" type="curve" smooth="yes"/>
      <point x="514" y="553"/>
      <point x="453" y="660"/>
    </contour>
  </outline>
</glyph>
<glyph name="R" format="2">
  <advance width="630"/>
  <unicode hex="0052"/>
  <outline>
    <contour>
      <point x="48" y="708" type="line"/>
      <point x="324" y="708" type="line" smooth="yes"/>
      <point x="468" y="708"/>
      <point x="570" y="634"/>
      <point x="570" y="502" type="curve" smooth="yes"/>
      <point x="570" y="394"/>
      <point x="502" y="318"/>
      <point x="403" y="291" type="curve"/>
      <point x="565" y="56" type="line"/>
      <point x="625" y="56" type="line"/>
      <point x="625" y="0" type="line"/>
      <point x="531" y="0" type="line"/>
      <point x="482" y="39" type="line"/>
      <point x="326" y="282" type="line"/>
      <point x="202" y="282" type="line"/>
      <point x="202" y="56" type="line"/>
      <point x="279" y="56" type="line"/>
      <point x="279" y="0" type="line"/>
      <point x="48" y="0" type="line"/>
      <point x="48" y="56" type="line"/>
      <point x="122" y="56" type="line"/>
      <point x="122" y="652" type="line"/>
      <point x="48" y="652" type="line"/>
    </contour>
    <contour>
      <point x="202" y="338" type="line"/>
      <point x="316" y="338" type="line" smooth="yes"/>
      <point x="428" y="338"/>
      <point x="490" y="381"/>
      <point x="490" y="504" type="curve" smooth="yes"/>
      <point x="490" y="617"/>
      <point x="413" y="652"/>
      <point x="316" y="652" type="curve" smooth="yes"/>
      <point x="202" y="652" type="line"/>
    </contour>
  </outline>
</glyph>
<glyph name="S" format="2">
  <advance width="584"/>
  <unicode hex="0053"/>
  <outline>
    <contour>
      <point x="310" y="716" type="curve" smooth="yes"/>
      <point x="389" y="716"/>
      <point x="468" y="695"/>
      <point x="526" y="653" type="curve"/>
      <point x="526" y="530" type="line"/>
      <point x="471" y="530" type="line"/>
      <point x="452" y="624" type="line"/>
      <point x="401" y="648"/>
      <point x="365" y="660"/>
      <point x="309" y="660" type="curve" smooth="yes"/>
      <point x="219" y="660"/>
      <point x="141" y="628"/>
      <point x="141" y="542" type="curve" smooth="yes"/>
      <point x="141" y="460"/>
      <point x="163" y="421"/>
      <point x="284" y="394" type="curve" smooth="yes"/>
      <point x="368" y="375" type="line" smooth="yes"/>
      <point x="483" y="349"/>
      <point x="541" y="285"/>
      <point x="541" y="184" type="curve" smooth="yes"/>
      <point x="541" y="76"/>
      <point x="449" y="-8"/>
      <point x="291" y="-8" type="curve" smooth="yes"/>
      <point x="187" y="-8"/>
      <point x="115" y="13"/>
      <point x="47" y="59" type="curve"/>
      <point x="47" y="180" type="line"/>
      <point x="100" y="180" type="line"/>
      <point x="119" y="93" type="line"/>
      <point x="175" y="61"/>
      <point x="225" y="48"/>
      <point x="295" y="48" type="curve" smooth="yes"/>
      <point x="400" y="48"/>
      <point x="463" y="87"/>
      <point x="463" y="175" type="curve" smooth="yes"/>
      <point x="463" y="253"/>
      <point x="419" y="294"/>
      <point x="311" y="318" type="curve" smooth="yes"/>
      <point x="234" y="335" type="line" smooth="yes"/>
      <point x="113" y="362"/>
      <point x="61" y="424"/>
      <point x="61" y="527" type="curve" smooth="yes"/>
      <point x="61" y="632"/>
      <point x="153" y="716"/>
    </contour>
  </outline>
</glyph>
<glyph name="T" format="2">
  <advance width="622"/>
  <unicode hex="0054"/>
  <outline>
    <contour>
      <point x="38" y="708" type="line"/>
      <point x="584" y="708" type="line"/>
      <point x="584" y="582" type="line"/>
      <point x="528" y="582" type="line"/>
      <point x="528" y="652" type="line"/>
      <point x="355" y="652" type="line"/>
      <point x="355" y="56" type="line"/>
      <point x="429" y="56" type="line"/>
      <point x="429" y="0" type="line"/>
      <point x="201" y="0" type="line"/>
      <point x="201" y="56" type="line"/>
      <point x="275" y="56" type="line"/>
      <point x="275" y="652" type="line"/>
      <point x="94" y="652" type="line"/>
      <point x="94" y="582" type="line"/>
      <point x="38" y="582" type="line"/>
    </contour>
  </outline>
</glyph>
<glyph name="U" format="2">
  <advance width="659"/>
  <unicode hex="0055"/>
  <anchor x="278.8" y="880" name="AccentCenter"/>
  <outline>
    <contour>
      <point x="32" y="708" type="line"/>
      <point x="259" y="708" type="line"/>
      <point x="259" y="663" type="line"/>
      <point x="185" y="663" type="line"/>
      <point x="185" y="228" type="line" smooth="yes"/>
      <point x="185" y="91"/>
      <point x="239" y="38"/>
      <point x="341" y="38" type="curve" smooth="yes"/>
      <point x="442" y="38"/>
      <point x="505" y="92"/>
      <point x="505" y="229" type="curve" smooth="yes"/>
      <point x="505" y="664" type="line"/>
      <point x="431" y="664" type="line"/>
      <point x="431" y="708" type="line"/>
      <point x="627" y="708" type="line"/>
      <point x="627" y="664" type="line"/>
      <point x="553" y="664" type="line"/>
      <point x="553" y="229" type="line" smooth="yes"/>
      <point x="553" y="70"/>
      <point x="461" y="-6"/>
      <point x="332" y="-6" type="curve" smooth="yes"/>
      <point x="202" y="-6"/>
      <point x="106" y="68"/>
      <point x="106" y="229" type="curve" smooth="yes"/>
      <point x="106" y="664" type="line"/>
      <point x="32" y="664" type="line"/>
    </contour>
  </outline>
</glyph>
<glyph name="W" format="2">
  <advance width="946"/>
  <unicode hex="0057"/>
  <outline>
    <contour>
      <point x="4" y="708" type="line"/>
      <point x="212" y="708" type="line"/>
      <point x="212" y="664" type="line"/>
      <point x="149" y="664" type="line"/>
      <point x="350" y="32" type="line"/>
      <point x="531" y="664" type="line"/>
      <point x="466" y="664" type="line"/>
      <point x="466" y="708" type="line"/>
      <point x="634" y="708" type="line"/>
      <point x="634" y="664" type="line"/>
      <point x="576" y="664" type="line"/>
      <point x="519.5764770507812" y="468.86859130859375" type="line"/>
      <point x="658" y="32" type="line"/>
      <point x="839" y="664" type="line"/>
      <point x="774" y="664" type="line"/>
      <point x="774" y="708" type="line"/>
      <point x="942" y="708" type="line"/>
      <point x="942" y="664" type="line"/>
      <point x="884" y="664" type="line"/>
      <point x="692" y="0" type="line"/>
      <point x="584" y="0" type="line"/>
      <point x="479.4453125" y="330.08172607421875" type="line"/>
      <point x="384" y="0" type="line"/>
      <point x="276" y="0" type="line"/>
      <point x="65" y="664" type="line"/>
      <point x="4" y="664" type="line"/>
    </contour>
  </outline>
</glyph>
<glyph name="X" format="2">
  <advance width="617"/>
  <unicode hex="0058"/>
  <outline>
    <contour>
      <point x="16" y="708" type="line"/>
      <point x="16" y="652" type="line"/>
      <point x="88.85310363769531" y="652" type="line"/>
      <point x="272" y="333" type="line"/>
      <point x="93.62146759033203" y="56" type="line"/>
      <point x="16" y="56" type="line"/>
      <point x="16" y="0" type="line"/>
      <point x="198" y="0" type="line"/>
      <point x="198" y="56" type="line"/>
      <point x="151.62147521972656" y="56" type="line"/>
      <point x="300" y="286" type="line"/>
      <point x="429" y="56" type="line"/>
      <point x="378" y="56" type="line"/>
      <point x="378" y="0" type="line"/>
      <point x="601" y="0" type="line"/>
      <point x="601" y="56" type="line"/>
      <point x="528" y="56" type="line"/>
      <point x="341" y="380" type="line"/>
      <point x="521" y="652" type="line"/>
      <point x="601" y="652" type="line"/>
      <point x="601" y="708" type="line"/>
      <point x="419" y="708" type="line"/>
      <point x="419" y="652" type="line"/>
      <point x="463" y="652" type="line"/>
      <point x="314" y="426" type="line"/>
      <point x="187.8531036376953" y="652" type="line"/>
      <point x="239" y="652" type="line"/>
      <point x="239" y="708" type="line"/>
    </contour>
  </outline>
</glyph>
<glyph name="Z" format="2">
  <advance width="572"/>
  <unicode hex="005A"/>
  <outline>
    <contour>
      <point x="32" y="708" type="line"/>
      <point x="540" y="708" type="line"/>
      <point x="540" y="652" type="line"/>
      <point x="127" y="56" type="line"/>
      <point x="496" y="56" type="line"/>
      <point x="496" y="120" type="line"/>
      <point x="540" y="120" type="line"/>
      <point x="540" y="0" type="line"/>
      <point x="32" y="0" type="line"/>
      <point x="32" y="56" type="line"/>
      <point x="449" y="652" type="line"/>
      <point x="76" y="652" type="line"/>
      <point x="76" y="588" type="line"/>
      <point x="32" y="588" type="line"/>
    </contour>
  </outline>
</glyph>
<glyph name="a" format="2">
  <advance width="535"/>
  <unicode hex="0061"/>
  <anchor x="267" y="687" name="AccentCenter"/>
  <anchor x="257" y="687" name="Ring"/>
  <outline>
    <contour>
      <point x="374" y="271" type="line"/>
      <point x="258" y="271" type="line" smooth="yes"/>
      <point x="167" y="271"/>
      <point x="128" y="210"/>
      <point x="128" y="144" type="curve" smooth="yes"/>
      <point x="128" y="83"/>
      <point x="154" y="37"/>
      <point x="225" y="37" type="curve" smooth="yes"/>
      <point x="301" y="37"/>
      <point x="354" y="84"/>
      <point x="374" y="120" type="curve"/>
    </contour>
    <contour>
      <point x="264" y="528" type="curve" smooth="yes"/>
      <point x="388" y="528"/>
      <point x="454" y="451"/>
      <point x="454" y="331" type="curve" smooth="yes"/>
      <point x="454" y="43" type="line"/>
      <point x="528" y="28" type="line"/>
      <point x="521" y="-10" type="line"/>
      <point x="449" y="3" type="line" smooth="yes"/>
      <point x="410" y="10"/>
      <point x="372" y="37"/>
      <point x="374" y="84" type="curve"/>
      <point x="351" y="41"/>
      <point x="286" y="-8"/>
      <point x="206" y="-8" type="curve" smooth="yes"/>
      <point x="117" y="-8"/>
      <point x="48" y="42"/>
      <point x="48" y="145" type="curve" smooth="yes"/>
      <point x="48" y="245"/>
      <point x="124" y="307"/>
      <point x="262" y="307" type="curve" smooth="yes"/>
      <point x="374" y="307" type="line"/>
      <point x="374" y="345" type="line" smooth="yes"/>
      <point x="374" y="420"/>
      <point x="342" y="487"/>
      <point x="235" y="487" type="curve" smooth="yes"/>
      <point x="181" y="487"/>
      <point x="139" y="472"/>
      <point x="95" y="438" type="curve"/>
      <point x="76" y="471" type="line"/>
      <point x="139" y="515"/>
      <point x="195" y="528"/>
    </contour>
  </outline>
</glyph>
<glyph name="b" format="2">
  <advance width="592"/>
  <unicode hex="0062"/>
  <outline>
    <contour>
      <point x="44" y="708" type="line"/>
      <point x="188" y="708" type="line"/>
      <point x="188" y="472" type="line"/>
      <point x="222" y="509"/>
      <point x="274" y="528"/>
      <point x="337" y="528" type="curve" smooth="yes"/>
      <point x="446" y="528"/>
      <point x="544" y="437"/>
      <point x="544" y="269" type="curve" smooth="yes"/>
      <point x="544" y="89"/>
      <point x="463" y="-8"/>
      <point x="339" y="-8" type="curve" smooth="yes"/>
      <point x="262" y="-8"/>
      <point x="217" y="15"/>
      <point x="187" y="70" type="curve"/>
      <point x="169" y="0" type="line"/>
      <point x="32" y="0" type="line"/>
      <point x="32" y="56" type="line"/>
      <point x="108" y="56" type="line"/>
      <point x="108" y="652" type="line"/>
      <point x="44" y="652" type="line"/>
    </contour>
    <contour>
      <point x="311" y="471" type="curve" smooth="yes"/>
      <point x="258" y="471"/>
      <point x="216" y="446"/>
      <point x="188" y="419" type="curve"/>
      <point x="188" y="125" type="line"/>
      <point x="209" y="85"/>
      <point x="254" y="48"/>
      <point x="323" y="48" type="curve" smooth="yes"/>
      <point x="410" y="48"/>
      <point x="464" y="126"/>
      <point x="464" y="267" type="curve" smooth="yes"/>
      <point x="464" y="403"/>
      <point x="397" y="471"/>
    </contour>
  </outline>
</glyph>
<glyph name="d" format="2">
  <advance width="605"/>
  <unicode hex="0064"/>
  <outline>
    <contour>
      <point x="335" y="716" type="line"/>
      <point x="332" y="660" type="line"/>
      <point x="417" y="660" type="line"/>
      <point x="417" y="438" type="line"/>
      <point x="381" y="497"/>
      <point x="335" y="528"/>
      <point x="264" y="528" type="curve" smooth="yes"/>
      <point x="131" y="528"/>
      <point x="48" y="437"/>
      <point x="48" y="269" type="curve" smooth="yes"/>
      <point x="48" y="89"/>
      <point x="131" y="-8"/>
      <point x="264" y="-8" type="curve" smooth="yes"/>
      <point x="335" y="-8"/>
      <point x="391" y="27"/>
      <point x="419" y="86" type="curve"/>
      <point x="436" y="0" type="line"/>
      <point x="561" y="0" type="line"/>
      <point x="561" y="56" type="line"/>
      <point x="497" y="56" type="line"/>
      <point x="497" y="716" type="line"/>
    </contour>
    <contour>
      <point x="279" y="466" type="curve" smooth="yes"/>
      <point x="337" y="466"/>
      <point x="386" y="441"/>
      <point x="417" y="384" type="curve"/>
      <point x="417" y="131" type="line"/>
      <point x="392" y="92"/>
      <point x="354" y="56"/>
      <point x="279" y="56" type="curve" smooth="yes"/>
      <point x="178" y="56"/>
      <point x="128" y="126"/>
      <point x="128" y="267" type="curve" smooth="yes"/>
      <point x="128" y="403"/>
      <point x="181" y="466"/>
    </contour>
  </outline>
</glyph>
<glyph name="e" format="2">
  <advance width="535"/>
  <unicode hex="0065"/>
  <anchor x="274" y="687" name="AccentCenter"/>
  <outline>
    <contour>
      <point x="279" y="528" type="curve" smooth="yes"/>
      <point x="395" y="528"/>
      <point x="486" y="444"/>
      <point x="486" y="298" type="curve" smooth="yes"/>
      <point x="486" y="280"/>
      <point x="482" y="254"/>
      <point x="480" y="246" type="curve"/>
      <point x="128" y="246" type="line"/>
      <point x="128" y="141"/>
      <point x="157" y="36"/>
      <point x="320" y="36" type="curve" smooth="yes"/>
      <point x="383" y="36"/>
      <point x="426" y="59"/>
      <point x="461" y="77" type="curve"/>
      <point x="480" y="36" type="line"/>
      <point x="431" y="12"/>
      <point x="381" y="-8"/>
      <point x="300" y="-8" type="curve" smooth="yes"/>
      <point x="146" y="-8"/>
      <point x="48" y="88"/>
      <point x="48" y="261" type="curve" smooth="yes"/>
      <point x="48" y="436"/>
      <point x="141" y="528"/>
    </contour>
    <contour>
      <point x="274" y="484" type="curve" smooth="yes"/>
      <point x="199" y="484"/>
      <point x="128" y="437"/>
      <point x="128" y="288" type="curve"/>
      <point x="411" y="288" type="line"/>
      <point x="411" y="318" type="line" smooth="yes"/>
      <point x="411" y="437"/>
      <point x="347" y="484"/>
    </contour>
  </outline>
</glyph>
<glyph name="h" format="2">
  <advance width="594"/>
  <unicode hex="0068"/>
  <outline>
    <contour>
      <point x="40" y="689" type="line"/>
      <point x="176" y="716" type="line"/>
      <point x="176" y="440" type="line"/>
      <point x="210" y="495"/>
      <point x="270" y="528"/>
      <point x="342" y="528" type="curve" smooth="yes"/>
      <point x="445" y="528"/>
      <point x="498" y="459"/>
      <point x="498" y="329" type="curve" smooth="yes"/>
      <point x="498" y="44" type="line"/>
      <point x="562" y="44" type="line"/>
      <point x="562" y="0" type="line"/>
      <point x="354" y="0" type="line"/>
      <point x="354" y="44" type="line"/>
      <point x="418" y="44" type="line"/>
      <point x="418" y="334" type="line" smooth="yes"/>
      <point x="418" y="445"/>
      <point x="378" y="484"/>
      <point x="321" y="484" type="curve" smooth="yes"/>
      <point x="260" y="484"/>
      <point x="210" y="441"/>
      <point x="176" y="388" type="curve"/>
      <point x="176" y="0" type="line"/>
      <point x="32" y="0" type="line"/>
      <point x="32" y="44" type="line"/>
      <point x="96" y="44" type="line"/>
      <point x="96" y="666" type="line"/>
      <point x="40" y="653" type="line"/>
    </contour>
  </outline>
</glyph>
<glyph name="j" format="2">
  <advance width="295"/>
  <unicode hex="006A"/>
  <outline>
    <contour>
      <point x="32" y="520" type="line"/>
      <point x="186" y="520" type="line"/>
      <point x="186" y="-34" type="line" smooth="yes"/>
      <point x="186" y="-58"/>
      <point x="179" y="-192"/>
      <point x="18" y="-192" type="curve" smooth="yes"/>
      <point x="9" y="-192" type="line"/>
      <point x="9" y="-128" type="line"/>
      <point x="18" y="-128" type="line" smooth="yes"/>
      <point x="47" y="-128"/>
      <point x="106" y="-118"/>
      <point x="106" y="-34" type="curve" smooth="yes"/>
      <point x="106" y="476" type="line"/>
      <point x="32" y="476" type="line"/>
    </contour>
    <contour>
      <point x="147" y="739" type="curve" smooth="yes"/>
      <point x="179" y="739"/>
      <point x="203" y="713"/>
      <point x="203" y="684" type="curve" smooth="yes"/>
      <point x="203" y="655"/>
      <point x="179" y="629"/>
      <point x="147" y="629" type="curve" smooth="yes"/>
      <point x="118" y="629"/>
      <point x="93" y="652"/>
      <point x="93" y="684" type="curve" smooth="yes"/>
      <point x="93" y="716"/>
      <point x="118" y="739"/>
    </contour>
  </outline>
</glyph>
<glyph name="k" format="2">
  <advance width="561"/>
  <unicode hex="006B"/>
  <outline>
    <contour>
      <point x="44" y="708" type="line"/>
      <point x="188" y="708" type="line"/>
      <point x="188" y="273" type="line"/>
      <point x="386" y="464" type="line"/>
      <point x="330" y="464" type="line"/>
      <point x="330" y="520" type="line"/>
      <point x="523" y="520" type="line"/>
      <point x="523" y="464" type="line"/>
      <point x="466" y="464" type="line"/>
      <point x="277" y="285" type="line"/>
      <point x="479" y="56" type="line"/>
      <point x="547" y="56" type="line"/>
      <point x="547" y="0" type="line"/>
      <point x="416" y="0" type="line"/>
      <point x="191" y="265" type="line"/>
      <point x="188" y="265" type="line"/>
      <point x="188" y="56" type="line"/>
      <point x="262" y="56" type="line"/>
      <point x="262" y="0" type="line"/>
      <point x="44" y="0" type="line"/>
      <point x="44" y="56" type="line"/>
      <point x="108" y="56" type="line"/>
      <point x="108" y="652" type="line"/>
      <point x="44" y="652" type="line"/>
    </contour>
  </outline>
</glyph>
<glyph name="l" format="2">
  <advance width="292"/>
  <unicode hex="006C"/>
  <outline>
    <contour>
      <point x="32" y="772" type="line"/>
      <point x="186" y="772" type="line"/>
      <point x="186" y="44" type="line"/>
      <point x="260" y="44" type="line"/>
      <point x="260" y="0" type="line"/>
      <point x="32" y="0" type="line"/>
      <point x="32" y="44" type="line"/>
      <point x="106" y="44" type="line"/>
      <point x="106" y="728" type="line"/>
      <point x="32" y="728" type="line"/>
    </contour>
  </outline>
</glyph>
<glyph name="m" format="2">
  <advance width="857"/>
  <unicode hex="006D"/>
  <outline>
    <contour>
      <point x="32" y="501" type="line"/>
      <point x="168" y="528" type="line"/>
      <point x="176" y="430" type="line"/>
      <point x="200" y="488"/>
      <point x="257" y="528"/>
      <point x="329" y="528" type="curve" smooth="yes"/>
      <point x="396.09307861328125" y="528"/>
      <point x="432" y="505"/>
      <point x="455" y="433" type="curve"/>
      <point x="481" y="485"/>
      <point x="545" y="528"/>
      <point x="612" y="528" type="curve" smooth="yes"/>
      <point x="715" y="528"/>
      <point x="761" y="459"/>
      <point x="761" y="329" type="curve" smooth="yes"/>
      <point x="761" y="44" type="line"/>
      <point x="825" y="44" type="line"/>
      <point x="825" y="0" type="line"/>
      <point x="681" y="0" type="line"/>
      <point x="681" y="345" type="line" smooth="yes"/>
      <point x="681" y="456"/>
      <point x="635" y="478"/>
      <point x="589" y="478" type="curve" smooth="yes"/>
      <point x="532" y="478"/>
      <point x="490" y="428"/>
      <point x="472" y="387" type="curve"/>
      <point x="472" y="44" type="line"/>
      <point x="536" y="44" type="line"/>
      <point x="536" y="0" type="line"/>
      <point x="392" y="0" type="line"/>
      <point x="392" y="345" type="line" smooth="yes"/>
      <point x="392" y="456"/>
      <point x="352" y="478"/>
      <point x="306" y="478" type="curve" smooth="yes"/>
      <point x="247" y="478"/>
      <point x="198" y="433"/>
      <point x="176" y="378" type="curve"/>
      <point x="176" y="44" type="line"/>
      <point x="240" y="44" type="line"/>
      <point x="240" y="0" type="line"/>
      <point x="32" y="0" type="line"/>
      <point x="32" y="44" type="line"/>
      <point x="96" y="44" type="line"/>
      <point x="96" y="465" type="line"/>
      <point x="32" y="465" type="line"/>
    </contour>
  </outline>
</glyph>
<glyph name="n" format="2">
  <advance width="594"/>
  <unicode hex="006E"/>
  <anchor x="274.4" y="687" name="AccentCenter"/>
  <outline>
    <contour>
      <point x="32" y="501" type="line"/>
      <point x="168" y="528" type="line"/>
      <point x="176" y="430" type="line"/>
      <point x="200" y="488"/>
      <point x="270" y="528"/>
      <point x="342" y="528" type="curve" smooth="yes"/>
      <point x="445" y="528"/>
      <point x="498" y="459"/>
      <point x="498" y="329" type="curve" smooth="yes"/>
      <point x="498" y="44" type="line"/>
      <point x="562" y="44" type="line"/>
      <point x="562" y="0" type="line"/>
      <point x="418" y="0" type="line"/>
      <point x="418" y="345" type="line" smooth="yes"/>
      <point x="418" y="456"/>
      <point x="365" y="478"/>
      <point x="319" y="478" type="curve" smooth="yes"/>
      <point x="260" y="478"/>
      <point x="198" y="433"/>
      <point x="176" y="378" type="curve"/>
      <point x="176" y="44" type="line"/>
      <point x="240" y="44" type="line"/>
      <point x="240" y="0" type="line"/>
      <point x="32" y="0" type="line"/>
      <point x="32" y="44" type="line"/>
      <point x="96" y="44" type="line"/>
      <point x="96" y="465" type="line"/>
      <point x="32" y="465" type="line"/>
    </contour>
  </outline>
</glyph>
<glyph name="o" format="2">
  <advance width="564"/>
  <unicode hex="006F"/>
  <anchor x="277" y="687" name="AccentCenter"/>
  <outline>
    <contour>
      <point x="282" y="472" type="curve" smooth="yes"/>
      <point x="182" y="472"/>
      <point x="127" y="398"/>
      <point x="127" y="258" type="curve" smooth="yes"/>
      <point x="127" y="119"/>
      <point x="180" y="48"/>
      <point x="280" y="48" type="curve" smooth="yes"/>
      <point x="381" y="48"/>
      <point x="436" y="121"/>
      <point x="436" y="260" type="curve" smooth="yes"/>
      <point x="436" y="399"/>
      <point x="381" y="472"/>
    </contour>
    <contour>
      <point x="282" y="528" type="curve" smooth="yes"/>
      <point x="427" y="528"/>
      <point x="516" y="425"/>
      <point x="516" y="257" type="curve" smooth="yes"/>
      <point x="516" y="98"/>
      <point x="421" y="-8"/>
      <point x="280" y="-8" type="curve" smooth="yes"/>
      <point x="139" y="-8"/>
      <point x="48" y="96"/>
      <point x="48" y="259" type="curve" smooth="yes"/>
      <point x="48" y="426"/>
      <point x="137" y="528"/>
    </contour>
  </outline>
</glyph>
<glyph name="p" format="2">
  <advance width="604"/>
  <unicode hex="0070"/>
  <outline>
    <contour>
      <point x="36" y="520" type="line"/>
      <point x="153" y="520" type="line"/>
      <point x="170" y="434" type="line"/>
      <point x="198" y="493"/>
      <point x="242" y="528"/>
      <point x="333" y="528" type="curve" smooth="yes"/>
      <point x="478" y="528"/>
      <point x="556" y="431"/>
      <point x="556" y="251" type="curve" smooth="yes"/>
      <point x="556" y="83"/>
      <point x="478" y="-8"/>
      <point x="333" y="-8" type="curve" smooth="yes"/>
      <point x="262" y="-8"/>
      <point x="208" y="23"/>
      <point x="172" y="82" type="curve"/>
      <point x="172" y="-192" type="line"/>
      <point x="36" y="-192" type="line"/>
      <point x="36" y="-156" type="line"/>
      <point x="92" y="-156" type="line"/>
      <point x="92" y="484" type="line"/>
      <point x="36" y="484" type="line"/>
    </contour>
    <contour>
      <point x="172" y="382" type="curve"/>
      <point x="172" y="137" type="line"/>
      <point x="191" y="76"/>
      <point x="251" y="36"/>
      <point x="325" y="36" type="curve" smooth="yes"/>
      <point x="429" y="36"/>
      <point x="476" y="117"/>
      <point x="476" y="253" type="curve" smooth="yes"/>
      <point x="476" y="394"/>
      <point x="426" y="484"/>
      <point x="325" y="484" type="curve" smooth="yes"/>
      <point x="240" y="484"/>
      <point x="190" y="431"/>
    </contour>
  </outline>
</glyph>
<glyph name="q" format="2">
  <advance width="605"/>
  <unicode hex="0071"/>
  <outline>
    <contour>
      <point x="561" y="520" type="line"/>
      <point x="436" y="520" type="line"/>
      <point x="419" y="440" type="line"/>
      <point x="381" y="497"/>
      <point x="347" y="528"/>
      <point x="256" y="528" type="curve" smooth="yes"/>
      <point x="129" y="528"/>
      <point x="48" y="431"/>
      <point x="48" y="251" type="curve" smooth="yes"/>
      <point x="48" y="83"/>
      <point x="129" y="-8"/>
      <point x="256" y="-8" type="curve" smooth="yes"/>
      <point x="327" y="-8"/>
      <point x="389" y="28"/>
      <point x="417" y="77" type="curve"/>
      <point x="417" y="-192" type="line"/>
      <point x="561" y="-192" type="line"/>
      <point x="561" y="-136" type="line"/>
      <point x="497" y="-136" type="line"/>
      <point x="497" y="464" type="line"/>
      <point x="561" y="464" type="line"/>
    </contour>
    <contour>
      <point x="417" y="382" type="curve"/>
      <point x="417" y="137" type="line"/>
      <point x="384" y="87"/>
      <point x="351" y="48"/>
      <point x="277" y="48" type="curve" smooth="yes"/>
      <point x="173" y="48"/>
      <point x="128" y="117"/>
      <point x="128" y="253" type="curve" smooth="yes"/>
      <point x="128" y="394"/>
      <point x="176" y="472"/>
      <point x="277" y="472" type="curve" smooth="yes"/>
      <point x="362" y="472"/>
      <point x="390" y="421"/>
    </contour>
  </outline>
</glyph>
<glyph name="r" format="2">
  <advance width="399"/>
  <unicode hex="0072"/>
  <outline>
    <contour>
      <point x="175" y="529" type="line"/>
      <point x="194" y="440" type="line"/>
      <point x="207" y="496"/>
      <point x="279" y="529"/>
      <point x="335" y="529" type="curve" smooth="yes"/>
      <point x="353" y="529"/>
      <point x="363" y="527"/>
      <point x="379" y="523" type="curve"/>
      <point x="375" y="462" type="line"/>
      <point x="317" y="462" type="line"/>
      <point x="250" y="462"/>
      <point x="207" y="418"/>
      <point x="194" y="370" type="curve"/>
      <point x="194" y="56" type="line"/>
      <point x="260" y="56" type="line"/>
      <point x="260" y="0" type="line"/>
      <point x="48" y="0" type="line"/>
      <point x="48" y="56" type="line"/>
      <point x="114" y="56" type="line"/>
      <point x="114" y="467" type="line"/>
      <point x="28" y="454" type="line"/>
      <point x="28" y="510" type="line"/>
    </contour>
  </outline>
</glyph>
<glyph name="s" format="2">
  <advance width="483"/>
  <unicode hex="0073"/>
  <outline>
    <contour>
      <point x="251" y="528" type="curve" smooth="yes"/>
      <point x="316" y="528"/>
      <point x="359" y="517"/>
      <point x="418" y="489" type="curve"/>
      <point x="418" y="377" type="line"/>
      <point x="360" y="377" type="line"/>
      <point x="355" y="447" type="line"/>
      <point x="328" y="462"/>
      <point x="295" y="472"/>
      <point x="250" y="472" type="curve" smooth="yes"/>
      <point x="195" y="472"/>
      <point x="138" y="448"/>
      <point x="138" y="394" type="curve" smooth="yes"/>
      <point x="138" y="354"/>
      <point x="159" y="321"/>
      <point x="206" y="311" type="curve" smooth="yes"/>
      <point x="301" y="290" type="line" smooth="yes"/>
      <point x="389" y="271"/>
      <point x="439" y="226"/>
      <point x="439" y="141" type="curve" smooth="yes"/>
      <point x="439" y="44"/>
      <point x="351" y="-8"/>
      <point x="232" y="-8" type="curve" smooth="yes"/>
      <point x="150" y="-8"/>
      <point x="95" y="10"/>
      <point x="35" y="48" type="curve"/>
      <point x="63" y="101" type="line"/>
      <point x="111" y="68"/>
      <point x="163" y="48"/>
      <point x="224" y="48" type="curve" smooth="yes"/>
      <point x="316" y="48"/>
      <point x="357" y="79"/>
      <point x="357" y="127" type="curve" smooth="yes"/>
      <point x="357" y="178"/>
      <point x="334" y="210"/>
      <point x="274" y="223" type="curve" smooth="yes"/>
      <point x="182" y="243" type="line" smooth="yes"/>
      <point x="137" y="253"/>
      <point x="55" y="282"/>
      <point x="55" y="387" type="curve" smooth="yes"/>
      <point x="55" y="460"/>
      <point x="123" y="528"/>
    </contour>
  </outline>
</glyph>
<glyph name="t" format="2">
  <advance width="370"/>
  <unicode hex="0074"/>
  <outline>
    <contour>
      <point x="114" y="649" type="line"/>
      <point x="192" y="687" type="line"/>
      <point x="192" y="520" type="line"/>
      <point x="330" y="520" type="line"/>
      <point x="330" y="464" type="line"/>
      <point x="192" y="464" type="line"/>
      <point x="192" y="117" type="line" smooth="yes"/>
      <point x="192" y="70"/>
      <point x="219" y="47"/>
      <point x="255" y="47" type="curve"/>
      <point x="264" y="47"/>
      <point x="274" y="48"/>
      <point x="282" y="49" type="curve" smooth="yes"/>
      <point x="329" y="57" type="line"/>
      <point x="338" y="7" type="line"/>
      <point x="300" y="-3"/>
      <point x="274" y="-8"/>
      <point x="253" y="-8" type="curve" smooth="yes"/>
      <point x="166" y="-8"/>
      <point x="114" y="38"/>
      <point x="114" y="121" type="curve" smooth="yes"/>
      <point x="114" y="464" type="line"/>
      <point x="8" y="464" type="line"/>
      <point x="8" y="520" type="line"/>
      <point x="114" y="520" type="line"/>
    </contour>
  </outline>
</glyph>
<glyph name="u" format="2">
  <advance width="594"/>
  <unicode hex="0075"/>
  <anchor x="276" y="687" name="AccentCenter"/>
  <outline>
    <contour>
      <point x="32" y="520" type="line"/>
      <point x="176" y="520" type="line"/>
      <point x="176" y="175" type="line" smooth="yes"/>
      <point x="176" y="64"/>
      <point x="229" y="42"/>
      <point x="275" y="42" type="curve" smooth="yes"/>
      <point x="334" y="42"/>
      <point x="396" y="87"/>
      <point x="418" y="142" type="curve"/>
      <point x="418" y="476" type="line"/>
      <point x="354" y="476" type="line"/>
      <point x="354" y="520" type="line"/>
      <point x="498" y="520" type="line"/>
      <point x="498" y="55" type="line"/>
      <point x="562" y="55" type="line"/>
      <point x="562" y="19" type="line"/>
      <point x="426" y="-8" type="line"/>
      <point x="418" y="90" type="line"/>
      <point x="394" y="32"/>
      <point x="324" y="-8"/>
      <point x="252" y="-8" type="curve" smooth="yes"/>
      <point x="149" y="-8"/>
      <point x="96" y="61"/>
      <point x="96" y="191" type="curve" smooth="yes"/>
      <point x="96" y="476" type="line"/>
      <point x="32" y="476" type="line"/>
    </contour>
  </outline>
</glyph>
<glyph name="w" format="2">
  <advance width="904"/>
  <unicode hex="0077"/>
  <outline>
    <contour>
      <point x="4" y="520" type="line"/>
      <point x="212" y="520" type="line"/>
      <point x="212" y="476" type="line"/>
      <point x="149" y="476" type="line"/>
      <point x="300" y="32" type="line"/>
      <point x="431" y="476" type="line"/>
      <point x="366" y="476" type="line"/>
      <point x="366" y="520" type="line"/>
      <point x="569" y="520" type="line"/>
      <point x="569" y="476" type="line"/>
      <point x="515" y="476" type="line"/>
      <point x="666" y="32" type="line"/>
      <point x="797" y="476" type="line"/>
      <point x="732" y="476" type="line"/>
      <point x="732" y="520" type="line"/>
      <point x="900" y="520" type="line"/>
      <point x="900" y="476" type="line"/>
      <point x="842" y="476" type="line"/>
      <point x="700" y="0" type="line"/>
      <point x="592" y="0" type="line"/>
      <point x="454.910888671875" y="405.30694580078125" type="line"/>
      <point x="334" y="0" type="line"/>
      <point x="226" y="0" type="line"/>
      <point x="65" y="476" type="line"/>
      <point x="4" y="476" type="line"/>
    </contour>
  </outline>
</glyph>
<glyph name="y" format="2">
  <advance width="598"/>
  <unicode hex="0079"/>
  <anchor x="293.2" y="687" name="AccentCenter"/>
  <outline>
    <contour>
      <point x="4" y="520" type="line"/>
      <point x="212" y="520" type="line"/>
      <point x="212" y="476" type="line"/>
      <point x="149" y="476" type="line"/>
      <point x="330" y="32" type="line"/>
      <point x="491" y="476" type="line"/>
      <point x="426" y="476" type="line"/>
      <point x="426" y="520" type="line"/>
      <point x="594" y="520" type="line"/>
      <point x="594" y="476" type="line"/>
      <point x="536" y="476" type="line"/>
      <point x="295" y="-192" type="line"/>
      <point x="164" y="-192" type="line"/>
      <point x="256" y="0" type="line"/>
      <point x="65" y="476" type="line"/>
      <point x="4" y="476" type="line"/>
    </contour>
  </outline>
</glyph>
<glyph name="dotlessi" format="2">
  <advance width="289"/>
  <unicode hex="0131"/>
  <anchor x="159" y="687" name="AccentCenter"/>
  <outline>
    <contour>
      <point x="32" y="520" type="line"/>
      <point x="201" y="520" type="line"/>
      <point x="201" y="56" type="line"/>
      <point x="265" y="56" type="line"/>
      <point x="265" y="0" type="line"/>
      <point x="121" y="0" type="line"/>
      <point x="121" y="464" type="line"/>
      <point x="32" y="464" type="line"/>
    </contour>
  </outline>
</glyph>
